<?xml version="1.0" encoding="UTF-8"?>
<svg xmlns="http://www.w3.org/2000/svg" xmlns:xlink="http://www.w3.org/1999/xlink" width="100px" height="100px" viewBox="0 0 100 100" version="1.1">
<g id="surface1">
<path style=" stroke:none;fill-rule:nonzero;fill:rgb(86.27451%,96.470588%,29.411765%);fill-opacity:1;" d="M 4 77.730469 C 4.238281 77.210938 4.410156 76.789062 4.628906 76.398438 C 14.359375 58.820312 24.101562 41.261719 33.800781 23.679688 C 34.378906 22.621094 34.980469 22.199219 36.21875 22.21875 C 40.578125 22.300781 44.929688 22.289062 49.289062 22.230469 C 50.351562 22.21875 50.980469 22.511719 51.511719 23.480469 C 54.691406 29.328125 57.941406 35.148438 61.160156 40.96875 C 61.359375 41.328125 61.519531 41.710938 61.78125 42.230469 C 61.339844 42.289062 61.011719 42.378906 60.679688 42.378906 C 56.589844 42.390625 52.488281 42.351562 48.398438 42.410156 C 47.390625 42.429688 46.910156 42.019531 46.480469 41.191406 C 45.320312 38.96875 44.078125 36.789062 42.699219 34.261719 C 40.199219 38.769531 37.839844 43.03125 35.351562 47.53125 C 49.671875 47.53125 63.699219 47.53125 77.96875 47.53125 C 77.648438 48.199219 77.460938 48.671875 77.210938 49.109375 C 75.589844 52.050781 73.898438 54.949219 72.359375 57.929688 C 71.75 59.109375 71.050781 59.539062 69.699219 59.53125 C 56.628906 59.46875 43.558594 59.519531 30.480469 59.460938 C 29.140625 59.449219 28.421875 59.851562 27.808594 61.050781 C 26.308594 63.988281 20.761719 74.859375 19.109375 77.71875 "/>
<path style=" stroke:none;fill-rule:nonzero;fill:rgb(86.27451%,96.470588%,29.411765%);fill-opacity:1;" d="M 57.511719 22.339844 C 68.960938 22.339844 80.351562 22.339844 92 22.339844 C 91.128906 23.941406 90.351562 25.398438 89.550781 26.851562 C 88.390625 28.960938 87.261719 31.101562 86 33.148438 C 85.691406 33.648438 84.921875 34.148438 84.359375 34.160156 C 77.910156 34.230469 71.460938 34.21875 65.011719 34.171875 C 64.488281 34.171875 63.738281 33.851562 63.511719 33.441406 C 61.488281 29.949219 59.558594 26.398438 57.609375 22.871094 C 57.539062 22.75 57.550781 22.578125 57.511719 22.339844 Z M 57.511719 22.339844 "/>
<path style=" stroke:none;fill-rule:nonzero;fill:rgb(86.27451%,96.470588%,29.411765%);fill-opacity:1;" d="M 61.941406 68.898438 C 61.101562 67.71875 60.511719 66.359375 59.648438 64.789062 C 64.488281 64.789062 69.039062 64.78125 73.578125 64.820312 C 73.960938 64.820312 74.5 65.121094 74.679688 65.441406 C 76.941406 69.441406 79.148438 73.46875 81.46875 77.671875 C 74.03125 77.671875 74.199219 77.671875 66.679688 77.671875 "/>
</g>
</svg>
